<?xml version="1.0" encoding="UTF-8" standalone="no"?>
<!-- Created with Inkscape (http://www.inkscape.org/) -->

<svg
   width="1024mm"
   height="1024mm"
   viewBox="0 0 1024 1024"
   version="1.1"
   id="svg24377"
   inkscape:version="1.2.2 (1:1.2.2+202305151915+b0a8486541)"
   sodipodi:docname="logo.svg"
   xmlns:inkscape="http://www.inkscape.org/namespaces/inkscape"
   xmlns:sodipodi="http://sodipodi.sourceforge.net/DTD/sodipodi-0.dtd"
   xmlns="http://www.w3.org/2000/svg"
   xmlns:svg="http://www.w3.org/2000/svg">
  <sodipodi:namedview
     id="namedview24379"
     pagecolor="#505050"
     bordercolor="#eeeeee"
     borderopacity="1"
     inkscape:showpageshadow="0"
     inkscape:pageopacity="0"
     inkscape:pagecheckerboard="0"
     inkscape:deskcolor="#505050"
     inkscape:document-units="mm"
     showgrid="false"
     inkscape:zoom="0.2102413"
     inkscape:cx="3643.4325"
     inkscape:cy="1954.8966"
     inkscape:window-width="2560"
     inkscape:window-height="1391"
     inkscape:window-x="0"
     inkscape:window-y="25"
     inkscape:window-maximized="1"
     inkscape:current-layer="layer1" />
  <defs
     id="defs24374" />
  <g
     inkscape:label="Katman 1"
     inkscape:groupmode="layer"
     id="layer1"
     transform="translate(868.69904,368.55795)">
    <rect
       style="fill:#6a1b9a;fill-opacity:1;stroke-width:0.499999;stroke-linecap:square"
       id="rect24598"
       width="1024"
       height="1024"
       x="-868.69904"
       y="-368.55795" />
    <path
       style="fill:#f3e5f5;fill-opacity:1;stroke-width:0.757744"
       d="m -218.85859,473.84823 c -17.47475,-2.03653 -35.72592,-7.72341 -51.36376,-16.00442 -7.59368,-4.02123 -19.30509,-11.50092 -20.15138,-12.87016 -0.27494,-0.44734 4.5038,-5.82291 10.6658,-11.99551 l 11.16669,-11.18502 5.03191,3.06467 c 11.63408,7.08562 25.20704,12.32429 39.1125,15.09542 11.09281,2.21094 31.26824,2.33724 42.07294,0.26348 44.42078,-8.52531 78.55551,-40.6553 88.994768,-83.76898 14.73313,-60.84562 -21.243388,-121.33984 -81.160808,-136.47221 -55.12094,-13.92092 -111.44215,14.09133 -132.60248,65.95228 -4.76613,11.68048 -8.59462,29.90559 -8.59462,40.91162 v 2.29256 l 23.87275,0.20048 23.87275,0.20047 -32.02174,32.01486 -32.02202,32.01458 -32.19729,-32.20417 -32.19758,-32.20417 h 24.05489 24.05518 v -4.35687 c 0.0286,-17.51342 5.62702,-40.22629 14.41008,-58.42562 14.6664,-30.39016 37.89792,-53.62168 68.28808,-68.28837 71.23878,-34.38017 157.14568,-5.0024 192.719804,65.90474 36.042678,71.84077 7.09049,159.05046 -64.770894,195.10344 -15.22945,7.64036 -30.23408,12.21718 -47.20852,14.39977 -9.34896,1.20227 -25.3448,1.37039 -34.03306,0.35771 z m -383.13159,-16.72756 c -26.25295,-4.36518 -47.88726,-25.32103 -52.83439,-51.17647 -1.65133,-8.63127 -1.61353,-533.76719 0.0401,-541.56764 5.57032,-26.29189 26.69514,-46.41519 53.75714,-51.20824 3.02917,-0.5367 47.78244,-0.79646 137.15296,-0.79646 h 132.65661 l 96.80066,96.802832 96.80095,96.8029611 V 76.180839 146.38374 l -7.00915,-2.19004 c -14.91241,-4.65988 -32.48769,-7.79386 -48.87474,-8.71547 l -9.28224,-0.52209 V 86.567979 38.179529 h -81.07862 -81.07862 v -81.078628 -81.078621 h -112.90389 -112.90418 v 259.14579 259.14606 l 102.68945,0.19188 102.68945,0.19188 3.27947,8.04646 c 6.67035,16.36757 16.60985,33.28186 27.60443,46.97539 2.88196,3.58963 5.47953,6.91435 5.77251,7.38804 0.65469,1.05937 -246.90769,1.07139 -253.27704,0 z m 389.33598,-97.10939 c -13.13621,-4.47859 -22.712,-17.48879 -22.712,-30.85784 0,-13.0228 9.70896,-26.48607 22.23545,-30.8335 5.23638,-1.81744 15.45655,-1.82632 20.57724,-0.0286 9.29169,3.28119 17.95188,12.21432 20.80921,21.46534 7.5954,24.59074 -16.70551,48.49613 -40.9099,40.24404 z m -312.92812,-63.4409 v -32.58307 h 70.01474 70.01474 l -2.19033,7.00915 c -4.65959,14.91242 -7.79386,32.4877 -8.71518,48.87474 l -0.52209,9.28224 h -64.30094 -64.30094 z m 0,-128.81639 v -32.58306 h 128.84846 128.84846 l -0.22052,5.71437 -0.22052,5.71437 -7.19846,2.89542 c -23.22894,9.34382 -43.89009,22.93253 -62.58888,41.16422 l -9.92577,9.67746 h -88.77052 -88.77053 z"
       id="path24372" />
  </g>
</svg>
